<?xml version="1.0" encoding="utf-8" standalone="no"?>
<!DOCTYPE svg PUBLIC "-//W3C//DTD SVG 1.1//EN"
  "http://www.w3.org/Graphics/SVG/1.1/DTD/svg11.dtd">
<!-- Created with matplotlib (http://matplotlib.org/) -->
<svg height="314pt" version="1.1" viewBox="0 0 421 314" width="421pt" xmlns="http://www.w3.org/2000/svg" xmlns:xlink="http://www.w3.org/1999/xlink">
 <defs>
  <style type="text/css">
*{stroke-linecap:butt;stroke-linejoin:round;}
  </style>
 </defs>
 <g id="figure_1">
  <g id="patch_1">
   <path d="M 0 314.36825 
L 421.148125 314.36825 
L 421.148125 0 
L 0 0 
z
" style="fill:#ffffff;"/>
  </g>
  <g id="axes_1">
   <g id="patch_2">
    <path d="M 53.328125 276.812 
L 410.448125 276.812 
L 410.448125 10.7 
L 53.328125 10.7 
z
" style="fill:#ffffff;"/>
   </g>
   <g id="matplotlib.axis_1">
    <g id="xtick_1">
     <g id="line2d_1">
      <defs>
       <path d="M 0 0 
L 0 3.5 
" id="m10b7ad0964" style="stroke:#000000;stroke-width:0.8;"/>
      </defs>
      <g>
       <use style="stroke:#000000;stroke-width:0.8;" x="66.281513" xlink:href="#m10b7ad0964" y="276.812"/>
      </g>
     </g>
     <g id="text_1">
      <!-- 0 -->
      <defs>
       <path d="M 31.78125 66.40625 
Q 24.171875 66.40625 20.328125 58.90625 
Q 16.5 51.421875 16.5 36.375 
Q 16.5 21.390625 20.328125 13.890625 
Q 24.171875 6.390625 31.78125 6.390625 
Q 39.453125 6.390625 43.28125 13.890625 
Q 47.125 21.390625 47.125 36.375 
Q 47.125 51.421875 43.28125 58.90625 
Q 39.453125 66.40625 31.78125 66.40625 
z
M 31.78125 74.21875 
Q 44.046875 74.21875 50.515625 64.515625 
Q 56.984375 54.828125 56.984375 36.375 
Q 56.984375 17.96875 50.515625 8.265625 
Q 44.046875 -1.421875 31.78125 -1.421875 
Q 19.53125 -1.421875 13.0625 8.265625 
Q 6.59375 17.96875 6.59375 36.375 
Q 6.59375 54.828125 13.0625 64.515625 
Q 19.53125 74.21875 31.78125 74.21875 
z
" id="DejaVuSans-30"/>
      </defs>
      <g transform="translate(63.100263 291.410438)scale(0.1 -0.1)">
       <use xlink:href="#DejaVuSans-30"/>
      </g>
     </g>
    </g>
    <g id="xtick_2">
     <g id="line2d_2">
      <g>
       <use style="stroke:#000000;stroke-width:0.8;" x="131.86829" xlink:href="#m10b7ad0964" y="276.812"/>
      </g>
     </g>
     <g id="text_2">
      <!-- 20 -->
      <defs>
       <path d="M 19.1875 8.296875 
L 53.609375 8.296875 
L 53.609375 0 
L 7.328125 0 
L 7.328125 8.296875 
Q 12.9375 14.109375 22.625 23.890625 
Q 32.328125 33.6875 34.8125 36.53125 
Q 39.546875 41.84375 41.421875 45.53125 
Q 43.3125 49.21875 43.3125 52.78125 
Q 43.3125 58.59375 39.234375 62.25 
Q 35.15625 65.921875 28.609375 65.921875 
Q 23.96875 65.921875 18.8125 64.3125 
Q 13.671875 62.703125 7.8125 59.421875 
L 7.8125 69.390625 
Q 13.765625 71.78125 18.9375 73 
Q 24.125 74.21875 28.421875 74.21875 
Q 39.75 74.21875 46.484375 68.546875 
Q 53.21875 62.890625 53.21875 53.421875 
Q 53.21875 48.921875 51.53125 44.890625 
Q 49.859375 40.875 45.40625 35.40625 
Q 44.1875 33.984375 37.640625 27.21875 
Q 31.109375 20.453125 19.1875 8.296875 
z
" id="DejaVuSans-32"/>
      </defs>
      <g transform="translate(125.50579 291.410438)scale(0.1 -0.1)">
       <use xlink:href="#DejaVuSans-32"/>
       <use x="63.623047" xlink:href="#DejaVuSans-30"/>
      </g>
     </g>
    </g>
    <g id="xtick_3">
     <g id="line2d_3">
      <g>
       <use style="stroke:#000000;stroke-width:0.8;" x="197.455067" xlink:href="#m10b7ad0964" y="276.812"/>
      </g>
     </g>
     <g id="text_3">
      <!-- 40 -->
      <defs>
       <path d="M 37.796875 64.3125 
L 12.890625 25.390625 
L 37.796875 25.390625 
z
M 35.203125 72.90625 
L 47.609375 72.90625 
L 47.609375 25.390625 
L 58.015625 25.390625 
L 58.015625 17.1875 
L 47.609375 17.1875 
L 47.609375 0 
L 37.796875 0 
L 37.796875 17.1875 
L 4.890625 17.1875 
L 4.890625 26.703125 
z
" id="DejaVuSans-34"/>
      </defs>
      <g transform="translate(191.092567 291.410438)scale(0.1 -0.1)">
       <use xlink:href="#DejaVuSans-34"/>
       <use x="63.623047" xlink:href="#DejaVuSans-30"/>
      </g>
     </g>
    </g>
    <g id="xtick_4">
     <g id="line2d_4">
      <g>
       <use style="stroke:#000000;stroke-width:0.8;" x="263.041844" xlink:href="#m10b7ad0964" y="276.812"/>
      </g>
     </g>
     <g id="text_4">
      <!-- 60 -->
      <defs>
       <path d="M 33.015625 40.375 
Q 26.375 40.375 22.484375 35.828125 
Q 18.609375 31.296875 18.609375 23.390625 
Q 18.609375 15.53125 22.484375 10.953125 
Q 26.375 6.390625 33.015625 6.390625 
Q 39.65625 6.390625 43.53125 10.953125 
Q 47.40625 15.53125 47.40625 23.390625 
Q 47.40625 31.296875 43.53125 35.828125 
Q 39.65625 40.375 33.015625 40.375 
z
M 52.59375 71.296875 
L 52.59375 62.3125 
Q 48.875 64.0625 45.09375 64.984375 
Q 41.3125 65.921875 37.59375 65.921875 
Q 27.828125 65.921875 22.671875 59.328125 
Q 17.53125 52.734375 16.796875 39.40625 
Q 19.671875 43.65625 24.015625 45.921875 
Q 28.375 48.1875 33.59375 48.1875 
Q 44.578125 48.1875 50.953125 41.515625 
Q 57.328125 34.859375 57.328125 23.390625 
Q 57.328125 12.15625 50.6875 5.359375 
Q 44.046875 -1.421875 33.015625 -1.421875 
Q 20.359375 -1.421875 13.671875 8.265625 
Q 6.984375 17.96875 6.984375 36.375 
Q 6.984375 53.65625 15.1875 63.9375 
Q 23.390625 74.21875 37.203125 74.21875 
Q 40.921875 74.21875 44.703125 73.484375 
Q 48.484375 72.75 52.59375 71.296875 
z
" id="DejaVuSans-36"/>
      </defs>
      <g transform="translate(256.679344 291.410438)scale(0.1 -0.1)">
       <use xlink:href="#DejaVuSans-36"/>
       <use x="63.623047" xlink:href="#DejaVuSans-30"/>
      </g>
     </g>
    </g>
    <g id="xtick_5">
     <g id="line2d_5">
      <g>
       <use style="stroke:#000000;stroke-width:0.8;" x="328.628621" xlink:href="#m10b7ad0964" y="276.812"/>
      </g>
     </g>
     <g id="text_5">
      <!-- 80 -->
      <defs>
       <path d="M 31.78125 34.625 
Q 24.75 34.625 20.71875 30.859375 
Q 16.703125 27.09375 16.703125 20.515625 
Q 16.703125 13.921875 20.71875 10.15625 
Q 24.75 6.390625 31.78125 6.390625 
Q 38.8125 6.390625 42.859375 10.171875 
Q 46.921875 13.96875 46.921875 20.515625 
Q 46.921875 27.09375 42.890625 30.859375 
Q 38.875 34.625 31.78125 34.625 
z
M 21.921875 38.8125 
Q 15.578125 40.375 12.03125 44.71875 
Q 8.5 49.078125 8.5 55.328125 
Q 8.5 64.0625 14.71875 69.140625 
Q 20.953125 74.21875 31.78125 74.21875 
Q 42.671875 74.21875 48.875 69.140625 
Q 55.078125 64.0625 55.078125 55.328125 
Q 55.078125 49.078125 51.53125 44.71875 
Q 48 40.375 41.703125 38.8125 
Q 48.828125 37.15625 52.796875 32.3125 
Q 56.78125 27.484375 56.78125 20.515625 
Q 56.78125 9.90625 50.3125 4.234375 
Q 43.84375 -1.421875 31.78125 -1.421875 
Q 19.734375 -1.421875 13.25 4.234375 
Q 6.78125 9.90625 6.78125 20.515625 
Q 6.78125 27.484375 10.78125 32.3125 
Q 14.796875 37.15625 21.921875 38.8125 
z
M 18.3125 54.390625 
Q 18.3125 48.734375 21.84375 45.5625 
Q 25.390625 42.390625 31.78125 42.390625 
Q 38.140625 42.390625 41.71875 45.5625 
Q 45.3125 48.734375 45.3125 54.390625 
Q 45.3125 60.0625 41.71875 63.234375 
Q 38.140625 66.40625 31.78125 66.40625 
Q 25.390625 66.40625 21.84375 63.234375 
Q 18.3125 60.0625 18.3125 54.390625 
z
" id="DejaVuSans-38"/>
      </defs>
      <g transform="translate(322.266121 291.410438)scale(0.1 -0.1)">
       <use xlink:href="#DejaVuSans-38"/>
       <use x="63.623047" xlink:href="#DejaVuSans-30"/>
      </g>
     </g>
    </g>
    <g id="xtick_6">
     <g id="line2d_6">
      <g>
       <use style="stroke:#000000;stroke-width:0.8;" x="394.215398" xlink:href="#m10b7ad0964" y="276.812"/>
      </g>
     </g>
     <g id="text_6">
      <!-- 100 -->
      <defs>
       <path d="M 12.40625 8.296875 
L 28.515625 8.296875 
L 28.515625 63.921875 
L 10.984375 60.40625 
L 10.984375 69.390625 
L 28.421875 72.90625 
L 38.28125 72.90625 
L 38.28125 8.296875 
L 54.390625 8.296875 
L 54.390625 0 
L 12.40625 0 
z
" id="DejaVuSans-31"/>
      </defs>
      <g transform="translate(384.671648 291.410438)scale(0.1 -0.1)">
       <use xlink:href="#DejaVuSans-31"/>
       <use x="63.623047" xlink:href="#DejaVuSans-30"/>
       <use x="127.246094" xlink:href="#DejaVuSans-30"/>
      </g>
     </g>
    </g>
    <g id="text_7">
     <!-- Segment Index -->
     <defs>
      <path d="M 53.515625 70.515625 
L 53.515625 60.890625 
Q 47.90625 63.578125 42.921875 64.890625 
Q 37.9375 66.21875 33.296875 66.21875 
Q 25.25 66.21875 20.875 63.09375 
Q 16.5 59.96875 16.5 54.203125 
Q 16.5 49.359375 19.40625 46.890625 
Q 22.3125 44.4375 30.421875 42.921875 
L 36.375 41.703125 
Q 47.40625 39.59375 52.65625 34.296875 
Q 57.90625 29 57.90625 20.125 
Q 57.90625 9.515625 50.796875 4.046875 
Q 43.703125 -1.421875 29.984375 -1.421875 
Q 24.8125 -1.421875 18.96875 -0.25 
Q 13.140625 0.921875 6.890625 3.21875 
L 6.890625 13.375 
Q 12.890625 10.015625 18.65625 8.296875 
Q 24.421875 6.59375 29.984375 6.59375 
Q 38.421875 6.59375 43.015625 9.90625 
Q 47.609375 13.234375 47.609375 19.390625 
Q 47.609375 24.75 44.3125 27.78125 
Q 41.015625 30.8125 33.5 32.328125 
L 27.484375 33.5 
Q 16.453125 35.6875 11.515625 40.375 
Q 6.59375 45.0625 6.59375 53.421875 
Q 6.59375 63.09375 13.40625 68.65625 
Q 20.21875 74.21875 32.171875 74.21875 
Q 37.3125 74.21875 42.625 73.28125 
Q 47.953125 72.359375 53.515625 70.515625 
z
" id="DejaVuSans-53"/>
      <path d="M 56.203125 29.59375 
L 56.203125 25.203125 
L 14.890625 25.203125 
Q 15.484375 15.921875 20.484375 11.0625 
Q 25.484375 6.203125 34.421875 6.203125 
Q 39.59375 6.203125 44.453125 7.46875 
Q 49.3125 8.734375 54.109375 11.28125 
L 54.109375 2.78125 
Q 49.265625 0.734375 44.1875 -0.34375 
Q 39.109375 -1.421875 33.890625 -1.421875 
Q 20.796875 -1.421875 13.15625 6.1875 
Q 5.515625 13.8125 5.515625 26.8125 
Q 5.515625 40.234375 12.765625 48.109375 
Q 20.015625 56 32.328125 56 
Q 43.359375 56 49.78125 48.890625 
Q 56.203125 41.796875 56.203125 29.59375 
z
M 47.21875 32.234375 
Q 47.125 39.59375 43.09375 43.984375 
Q 39.0625 48.390625 32.421875 48.390625 
Q 24.90625 48.390625 20.390625 44.140625 
Q 15.875 39.890625 15.1875 32.171875 
z
" id="DejaVuSans-65"/>
      <path d="M 45.40625 27.984375 
Q 45.40625 37.75 41.375 43.109375 
Q 37.359375 48.484375 30.078125 48.484375 
Q 22.859375 48.484375 18.828125 43.109375 
Q 14.796875 37.75 14.796875 27.984375 
Q 14.796875 18.265625 18.828125 12.890625 
Q 22.859375 7.515625 30.078125 7.515625 
Q 37.359375 7.515625 41.375 12.890625 
Q 45.40625 18.265625 45.40625 27.984375 
z
M 54.390625 6.78125 
Q 54.390625 -7.171875 48.1875 -13.984375 
Q 42 -20.796875 29.203125 -20.796875 
Q 24.46875 -20.796875 20.265625 -20.09375 
Q 16.0625 -19.390625 12.109375 -17.921875 
L 12.109375 -9.1875 
Q 16.0625 -11.328125 19.921875 -12.34375 
Q 23.78125 -13.375 27.78125 -13.375 
Q 36.625 -13.375 41.015625 -8.765625 
Q 45.40625 -4.15625 45.40625 5.171875 
L 45.40625 9.625 
Q 42.625 4.78125 38.28125 2.390625 
Q 33.9375 0 27.875 0 
Q 17.828125 0 11.671875 7.65625 
Q 5.515625 15.328125 5.515625 27.984375 
Q 5.515625 40.671875 11.671875 48.328125 
Q 17.828125 56 27.875 56 
Q 33.9375 56 38.28125 53.609375 
Q 42.625 51.21875 45.40625 46.390625 
L 45.40625 54.6875 
L 54.390625 54.6875 
z
" id="DejaVuSans-67"/>
      <path d="M 52 44.1875 
Q 55.375 50.25 60.0625 53.125 
Q 64.75 56 71.09375 56 
Q 79.640625 56 84.28125 50.015625 
Q 88.921875 44.046875 88.921875 33.015625 
L 88.921875 0 
L 79.890625 0 
L 79.890625 32.71875 
Q 79.890625 40.578125 77.09375 44.375 
Q 74.3125 48.1875 68.609375 48.1875 
Q 61.625 48.1875 57.5625 43.546875 
Q 53.515625 38.921875 53.515625 30.90625 
L 53.515625 0 
L 44.484375 0 
L 44.484375 32.71875 
Q 44.484375 40.625 41.703125 44.40625 
Q 38.921875 48.1875 33.109375 48.1875 
Q 26.21875 48.1875 22.15625 43.53125 
Q 18.109375 38.875 18.109375 30.90625 
L 18.109375 0 
L 9.078125 0 
L 9.078125 54.6875 
L 18.109375 54.6875 
L 18.109375 46.1875 
Q 21.1875 51.21875 25.484375 53.609375 
Q 29.78125 56 35.6875 56 
Q 41.65625 56 45.828125 52.96875 
Q 50 49.953125 52 44.1875 
z
" id="DejaVuSans-6d"/>
      <path d="M 54.890625 33.015625 
L 54.890625 0 
L 45.90625 0 
L 45.90625 32.71875 
Q 45.90625 40.484375 42.875 44.328125 
Q 39.84375 48.1875 33.796875 48.1875 
Q 26.515625 48.1875 22.3125 43.546875 
Q 18.109375 38.921875 18.109375 30.90625 
L 18.109375 0 
L 9.078125 0 
L 9.078125 54.6875 
L 18.109375 54.6875 
L 18.109375 46.1875 
Q 21.34375 51.125 25.703125 53.5625 
Q 30.078125 56 35.796875 56 
Q 45.21875 56 50.046875 50.171875 
Q 54.890625 44.34375 54.890625 33.015625 
z
" id="DejaVuSans-6e"/>
      <path d="M 18.3125 70.21875 
L 18.3125 54.6875 
L 36.8125 54.6875 
L 36.8125 47.703125 
L 18.3125 47.703125 
L 18.3125 18.015625 
Q 18.3125 11.328125 20.140625 9.421875 
Q 21.96875 7.515625 27.59375 7.515625 
L 36.8125 7.515625 
L 36.8125 0 
L 27.59375 0 
Q 17.1875 0 13.234375 3.875 
Q 9.28125 7.765625 9.28125 18.015625 
L 9.28125 47.703125 
L 2.6875 47.703125 
L 2.6875 54.6875 
L 9.28125 54.6875 
L 9.28125 70.21875 
z
" id="DejaVuSans-74"/>
      <path id="DejaVuSans-20"/>
      <path d="M 9.8125 72.90625 
L 19.671875 72.90625 
L 19.671875 0 
L 9.8125 0 
z
" id="DejaVuSans-49"/>
      <path d="M 45.40625 46.390625 
L 45.40625 75.984375 
L 54.390625 75.984375 
L 54.390625 0 
L 45.40625 0 
L 45.40625 8.203125 
Q 42.578125 3.328125 38.25 0.953125 
Q 33.9375 -1.421875 27.875 -1.421875 
Q 17.96875 -1.421875 11.734375 6.484375 
Q 5.515625 14.40625 5.515625 27.296875 
Q 5.515625 40.1875 11.734375 48.09375 
Q 17.96875 56 27.875 56 
Q 33.9375 56 38.25 53.625 
Q 42.578125 51.265625 45.40625 46.390625 
z
M 14.796875 27.296875 
Q 14.796875 17.390625 18.875 11.75 
Q 22.953125 6.109375 30.078125 6.109375 
Q 37.203125 6.109375 41.296875 11.75 
Q 45.40625 17.390625 45.40625 27.296875 
Q 45.40625 37.203125 41.296875 42.84375 
Q 37.203125 48.484375 30.078125 48.484375 
Q 22.953125 48.484375 18.875 42.84375 
Q 14.796875 37.203125 14.796875 27.296875 
z
" id="DejaVuSans-64"/>
      <path d="M 54.890625 54.6875 
L 35.109375 28.078125 
L 55.90625 0 
L 45.3125 0 
L 29.390625 21.484375 
L 13.484375 0 
L 2.875 0 
L 24.125 28.609375 
L 4.6875 54.6875 
L 15.28125 54.6875 
L 29.78125 35.203125 
L 44.28125 54.6875 
z
" id="DejaVuSans-78"/>
     </defs>
     <g transform="translate(193.945156 305.088562)scale(0.1 -0.1)">
      <use xlink:href="#DejaVuSans-53"/>
      <use x="63.476562" xlink:href="#DejaVuSans-65"/>
      <use x="125" xlink:href="#DejaVuSans-67"/>
      <use x="188.476562" xlink:href="#DejaVuSans-6d"/>
      <use x="285.888672" xlink:href="#DejaVuSans-65"/>
      <use x="347.412109" xlink:href="#DejaVuSans-6e"/>
      <use x="410.791016" xlink:href="#DejaVuSans-74"/>
      <use x="450" xlink:href="#DejaVuSans-20"/>
      <use x="481.787109" xlink:href="#DejaVuSans-49"/>
      <use x="511.279297" xlink:href="#DejaVuSans-6e"/>
      <use x="574.658203" xlink:href="#DejaVuSans-64"/>
      <use x="638.134766" xlink:href="#DejaVuSans-65"/>
      <use x="699.642578" xlink:href="#DejaVuSans-78"/>
     </g>
    </g>
   </g>
   <g id="matplotlib.axis_2">
    <g id="ytick_1">
     <g id="line2d_7">
      <defs>
       <path d="M 0 0 
L -3.5 0 
" id="m08f654eabf" style="stroke:#000000;stroke-width:0.8;"/>
      </defs>
      <g>
       <use style="stroke:#000000;stroke-width:0.8;" x="53.328125" xlink:href="#m08f654eabf" y="241.134888"/>
      </g>
     </g>
     <g id="text_8">
      <!-- 500 -->
      <defs>
       <path d="M 10.796875 72.90625 
L 49.515625 72.90625 
L 49.515625 64.59375 
L 19.828125 64.59375 
L 19.828125 46.734375 
Q 21.96875 47.46875 24.109375 47.828125 
Q 26.265625 48.1875 28.421875 48.1875 
Q 40.625 48.1875 47.75 41.5 
Q 54.890625 34.8125 54.890625 23.390625 
Q 54.890625 11.625 47.5625 5.09375 
Q 40.234375 -1.421875 26.90625 -1.421875 
Q 22.3125 -1.421875 17.546875 -0.640625 
Q 12.796875 0.140625 7.71875 1.703125 
L 7.71875 11.625 
Q 12.109375 9.234375 16.796875 8.0625 
Q 21.484375 6.890625 26.703125 6.890625 
Q 35.15625 6.890625 40.078125 11.328125 
Q 45.015625 15.765625 45.015625 23.390625 
Q 45.015625 31 40.078125 35.4375 
Q 35.15625 39.890625 26.703125 39.890625 
Q 22.75 39.890625 18.8125 39.015625 
Q 14.890625 38.140625 10.796875 36.28125 
z
" id="DejaVuSans-35"/>
      </defs>
      <g transform="translate(27.240625 244.934106)scale(0.1 -0.1)">
       <use xlink:href="#DejaVuSans-35"/>
       <use x="63.623047" xlink:href="#DejaVuSans-30"/>
       <use x="127.246094" xlink:href="#DejaVuSans-30"/>
      </g>
     </g>
    </g>
    <g id="ytick_2">
     <g id="line2d_8">
      <g>
       <use style="stroke:#000000;stroke-width:0.8;" x="53.328125" xlink:href="#m08f654eabf" y="203.622141"/>
      </g>
     </g>
     <g id="text_9">
      <!-- 1000 -->
      <g transform="translate(20.878125 207.42136)scale(0.1 -0.1)">
       <use xlink:href="#DejaVuSans-31"/>
       <use x="63.623047" xlink:href="#DejaVuSans-30"/>
       <use x="127.246094" xlink:href="#DejaVuSans-30"/>
       <use x="190.869141" xlink:href="#DejaVuSans-30"/>
      </g>
     </g>
    </g>
    <g id="ytick_3">
     <g id="line2d_9">
      <g>
       <use style="stroke:#000000;stroke-width:0.8;" x="53.328125" xlink:href="#m08f654eabf" y="166.109395"/>
      </g>
     </g>
     <g id="text_10">
      <!-- 1500 -->
      <g transform="translate(20.878125 169.908614)scale(0.1 -0.1)">
       <use xlink:href="#DejaVuSans-31"/>
       <use x="63.623047" xlink:href="#DejaVuSans-35"/>
       <use x="127.246094" xlink:href="#DejaVuSans-30"/>
       <use x="190.869141" xlink:href="#DejaVuSans-30"/>
      </g>
     </g>
    </g>
    <g id="ytick_4">
     <g id="line2d_10">
      <g>
       <use style="stroke:#000000;stroke-width:0.8;" x="53.328125" xlink:href="#m08f654eabf" y="128.596649"/>
      </g>
     </g>
     <g id="text_11">
      <!-- 2000 -->
      <g transform="translate(20.878125 132.395868)scale(0.1 -0.1)">
       <use xlink:href="#DejaVuSans-32"/>
       <use x="63.623047" xlink:href="#DejaVuSans-30"/>
       <use x="127.246094" xlink:href="#DejaVuSans-30"/>
       <use x="190.869141" xlink:href="#DejaVuSans-30"/>
      </g>
     </g>
    </g>
    <g id="ytick_5">
     <g id="line2d_11">
      <g>
       <use style="stroke:#000000;stroke-width:0.8;" x="53.328125" xlink:href="#m08f654eabf" y="91.083903"/>
      </g>
     </g>
     <g id="text_12">
      <!-- 2500 -->
      <g transform="translate(20.878125 94.883122)scale(0.1 -0.1)">
       <use xlink:href="#DejaVuSans-32"/>
       <use x="63.623047" xlink:href="#DejaVuSans-35"/>
       <use x="127.246094" xlink:href="#DejaVuSans-30"/>
       <use x="190.869141" xlink:href="#DejaVuSans-30"/>
      </g>
     </g>
    </g>
    <g id="ytick_6">
     <g id="line2d_12">
      <g>
       <use style="stroke:#000000;stroke-width:0.8;" x="53.328125" xlink:href="#m08f654eabf" y="53.571157"/>
      </g>
     </g>
     <g id="text_13">
      <!-- 3000 -->
      <defs>
       <path d="M 40.578125 39.3125 
Q 47.65625 37.796875 51.625 33 
Q 55.609375 28.21875 55.609375 21.1875 
Q 55.609375 10.40625 48.1875 4.484375 
Q 40.765625 -1.421875 27.09375 -1.421875 
Q 22.515625 -1.421875 17.65625 -0.515625 
Q 12.796875 0.390625 7.625 2.203125 
L 7.625 11.71875 
Q 11.71875 9.328125 16.59375 8.109375 
Q 21.484375 6.890625 26.8125 6.890625 
Q 36.078125 6.890625 40.9375 10.546875 
Q 45.796875 14.203125 45.796875 21.1875 
Q 45.796875 27.640625 41.28125 31.265625 
Q 36.765625 34.90625 28.71875 34.90625 
L 20.21875 34.90625 
L 20.21875 43.015625 
L 29.109375 43.015625 
Q 36.375 43.015625 40.234375 45.921875 
Q 44.09375 48.828125 44.09375 54.296875 
Q 44.09375 59.90625 40.109375 62.90625 
Q 36.140625 65.921875 28.71875 65.921875 
Q 24.65625 65.921875 20.015625 65.03125 
Q 15.375 64.15625 9.8125 62.3125 
L 9.8125 71.09375 
Q 15.4375 72.65625 20.34375 73.4375 
Q 25.25 74.21875 29.59375 74.21875 
Q 40.828125 74.21875 47.359375 69.109375 
Q 53.90625 64.015625 53.90625 55.328125 
Q 53.90625 49.265625 50.4375 45.09375 
Q 46.96875 40.921875 40.578125 39.3125 
z
" id="DejaVuSans-33"/>
      </defs>
      <g transform="translate(20.878125 57.370376)scale(0.1 -0.1)">
       <use xlink:href="#DejaVuSans-33"/>
       <use x="63.623047" xlink:href="#DejaVuSans-30"/>
       <use x="127.246094" xlink:href="#DejaVuSans-30"/>
       <use x="190.869141" xlink:href="#DejaVuSans-30"/>
      </g>
     </g>
    </g>
    <g id="ytick_7">
     <g id="line2d_13">
      <g>
       <use style="stroke:#000000;stroke-width:0.8;" x="53.328125" xlink:href="#m08f654eabf" y="16.058411"/>
      </g>
     </g>
     <g id="text_14">
      <!-- 3500 -->
      <g transform="translate(20.878125 19.857629)scale(0.1 -0.1)">
       <use xlink:href="#DejaVuSans-33"/>
       <use x="63.623047" xlink:href="#DejaVuSans-35"/>
       <use x="127.246094" xlink:href="#DejaVuSans-30"/>
       <use x="190.869141" xlink:href="#DejaVuSans-30"/>
      </g>
     </g>
    </g>
    <g id="text_15">
     <!-- Segment Bitrate -->
     <defs>
      <path d="M 19.671875 34.8125 
L 19.671875 8.109375 
L 35.5 8.109375 
Q 43.453125 8.109375 47.28125 11.40625 
Q 51.125 14.703125 51.125 21.484375 
Q 51.125 28.328125 47.28125 31.5625 
Q 43.453125 34.8125 35.5 34.8125 
z
M 19.671875 64.796875 
L 19.671875 42.828125 
L 34.28125 42.828125 
Q 41.5 42.828125 45.03125 45.53125 
Q 48.578125 48.25 48.578125 53.8125 
Q 48.578125 59.328125 45.03125 62.0625 
Q 41.5 64.796875 34.28125 64.796875 
z
M 9.8125 72.90625 
L 35.015625 72.90625 
Q 46.296875 72.90625 52.390625 68.21875 
Q 58.5 63.53125 58.5 54.890625 
Q 58.5 48.1875 55.375 44.234375 
Q 52.25 40.28125 46.1875 39.3125 
Q 53.46875 37.75 57.5 32.78125 
Q 61.53125 27.828125 61.53125 20.40625 
Q 61.53125 10.640625 54.890625 5.3125 
Q 48.25 0 35.984375 0 
L 9.8125 0 
z
" id="DejaVuSans-42"/>
      <path d="M 9.421875 54.6875 
L 18.40625 54.6875 
L 18.40625 0 
L 9.421875 0 
z
M 9.421875 75.984375 
L 18.40625 75.984375 
L 18.40625 64.59375 
L 9.421875 64.59375 
z
" id="DejaVuSans-69"/>
      <path d="M 41.109375 46.296875 
Q 39.59375 47.171875 37.8125 47.578125 
Q 36.03125 48 33.890625 48 
Q 26.265625 48 22.1875 43.046875 
Q 18.109375 38.09375 18.109375 28.8125 
L 18.109375 0 
L 9.078125 0 
L 9.078125 54.6875 
L 18.109375 54.6875 
L 18.109375 46.1875 
Q 20.953125 51.171875 25.484375 53.578125 
Q 30.03125 56 36.53125 56 
Q 37.453125 56 38.578125 55.875 
Q 39.703125 55.765625 41.0625 55.515625 
z
" id="DejaVuSans-72"/>
      <path d="M 34.28125 27.484375 
Q 23.390625 27.484375 19.1875 25 
Q 14.984375 22.515625 14.984375 16.5 
Q 14.984375 11.71875 18.140625 8.90625 
Q 21.296875 6.109375 26.703125 6.109375 
Q 34.1875 6.109375 38.703125 11.40625 
Q 43.21875 16.703125 43.21875 25.484375 
L 43.21875 27.484375 
z
M 52.203125 31.203125 
L 52.203125 0 
L 43.21875 0 
L 43.21875 8.296875 
Q 40.140625 3.328125 35.546875 0.953125 
Q 30.953125 -1.421875 24.3125 -1.421875 
Q 15.921875 -1.421875 10.953125 3.296875 
Q 6 8.015625 6 15.921875 
Q 6 25.140625 12.171875 29.828125 
Q 18.359375 34.515625 30.609375 34.515625 
L 43.21875 34.515625 
L 43.21875 35.40625 
Q 43.21875 41.609375 39.140625 45 
Q 35.0625 48.390625 27.6875 48.390625 
Q 23 48.390625 18.546875 47.265625 
Q 14.109375 46.140625 10.015625 43.890625 
L 10.015625 52.203125 
Q 14.9375 54.109375 19.578125 55.046875 
Q 24.21875 56 28.609375 56 
Q 40.484375 56 46.34375 49.84375 
Q 52.203125 43.703125 52.203125 31.203125 
z
" id="DejaVuSans-61"/>
     </defs>
     <g transform="translate(14.798438 184.781781)rotate(-90)scale(0.1 -0.1)">
      <use xlink:href="#DejaVuSans-53"/>
      <use x="63.476562" xlink:href="#DejaVuSans-65"/>
      <use x="125" xlink:href="#DejaVuSans-67"/>
      <use x="188.476562" xlink:href="#DejaVuSans-6d"/>
      <use x="285.888672" xlink:href="#DejaVuSans-65"/>
      <use x="347.412109" xlink:href="#DejaVuSans-6e"/>
      <use x="410.791016" xlink:href="#DejaVuSans-74"/>
      <use x="450" xlink:href="#DejaVuSans-20"/>
      <use x="481.787109" xlink:href="#DejaVuSans-42"/>
      <use x="550.390625" xlink:href="#DejaVuSans-69"/>
      <use x="578.173828" xlink:href="#DejaVuSans-74"/>
      <use x="617.382812" xlink:href="#DejaVuSans-72"/>
      <use x="658.496094" xlink:href="#DejaVuSans-61"/>
      <use x="719.775391" xlink:href="#DejaVuSans-74"/>
      <use x="758.984375" xlink:href="#DejaVuSans-65"/>
     </g>
    </g>
   </g>
   <g id="line2d_14">
    <path clip-path="url(#pa9573d91b1)" d="M 69.560852 240.545787 
L 72.840191 254.256546 
L 76.11953 255.140046 
L 79.398869 254.629873 
L 82.678208 255.101633 
L 85.957546 253.559109 
L 89.236885 252.192745 
L 92.516224 237.803756 
L 95.795563 234.793433 
L 99.074902 249.710001 
L 102.354241 255.137345 
L 105.63358 250.680831 
L 108.912918 254.56145 
L 112.192257 251.823019 
L 115.471596 250.956925 
L 118.750935 249.958486 
L 122.030274 254.195925 
L 125.309613 252.833162 
L 128.588951 251.740791 
L 131.86829 240.491469 
L 135.147629 245.017907 
L 138.426968 247.343697 
L 141.706307 250.107636 
L 144.985646 249.879259 
L 148.264985 235.599207 
L 151.544323 246.287038 
L 154.823662 249.453714 
L 158.103001 249.113399 
L 161.38234 245.948523 
L 164.661679 248.059741 
L 167.941018 240.773865 
L 171.220356 229.063886 
L 174.499695 212.455043 
L 177.779034 218.212199 
L 181.058373 244.520038 
L 184.337712 254.62207 
L 187.617051 241.814619 
L 190.896389 245.059921 
L 194.175728 243.027631 
L 197.455067 248.271012 
L 200.734406 244.637378 
L 204.013745 251.417281 
L 207.293084 259.238539 
L 210.572423 257.53636 
L 213.851761 253.065741 
L 217.1311 255.734548 
L 220.410439 254.220234 
L 223.689778 254.472019 
L 226.969117 256.650459 
L 230.248456 256.986274 
L 233.527794 254.29646 
L 236.807133 256.59344 
L 240.086472 255.79817 
L 243.365811 253.328031 
L 246.64515 252.109316 
L 249.924489 249.636176 
L 253.203827 246.245624 
L 256.483166 251.660364 
L 259.762505 251.681071 
L 263.041844 250.002601 
L 266.321183 253.852309 
L 269.600522 254.300661 
L 272.879861 252.389312 
L 276.159199 253.289317 
L 279.438538 251.474901 
L 282.717877 252.381509 
L 285.997216 251.154092 
L 289.276555 249.127803 
L 292.555894 248.973851 
L 295.835232 247.188244 
L 299.114571 233.015029 
L 302.39391 221.505518 
L 305.673249 229.45732 
L 308.952588 198.893135 
L 312.231927 247.229959 
L 315.511265 257.163334 
L 318.790604 255.530179 
L 322.069943 261.402574 
L 325.349282 253.987055 
L 328.628621 229.878363 
L 331.90796 244.505633 
L 335.187299 244.121502 
L 338.466637 242.058001 
L 341.745976 236.443393 
L 345.025315 234.941983 
L 348.304654 230.007107 
L 351.583993 260.394832 
L 354.863332 262.084106 
L 358.14267 235.498672 
L 361.422009 219.261055 
L 364.701348 240.362425 
L 367.980687 247.682212 
L 371.260026 264.716 
L 374.539365 264.521234 
L 377.818704 264.410496 
L 381.098042 264.351676 
L 384.377381 259.36068 
L 387.65672 257.401915 
L 390.936059 262.102112 
L 394.215398 261.843424 
" style="fill:none;stroke:#b22222;stroke-dasharray:1.5,2.475;stroke-dashoffset:0;stroke-width:1.5;"/>
   </g>
   <g id="line2d_15">
    <path clip-path="url(#pa9573d91b1)" d="M 69.560852 241.134888 
L 72.840191 241.134888 
L 76.11953 241.134888 
L 79.398869 241.134888 
L 82.678208 241.134888 
L 85.957546 241.134888 
L 89.236885 241.134888 
L 92.516224 241.134888 
L 95.795563 241.134888 
L 99.074902 241.134888 
L 102.354241 241.134888 
L 105.63358 241.134888 
L 108.912918 241.134888 
L 112.192257 241.134888 
L 115.471596 241.134888 
L 118.750935 241.134888 
L 122.030274 241.134888 
L 125.309613 241.134888 
L 128.588951 241.134888 
L 131.86829 241.134888 
L 135.147629 241.134888 
L 138.426968 241.134888 
L 141.706307 241.134888 
L 144.985646 241.134888 
L 148.264985 241.134888 
L 151.544323 241.134888 
L 154.823662 241.134888 
L 158.103001 241.134888 
L 161.38234 241.134888 
L 164.661679 241.134888 
L 167.941018 241.134888 
L 171.220356 241.134888 
L 174.499695 241.134888 
L 177.779034 241.134888 
L 181.058373 241.134888 
L 184.337712 241.134888 
L 187.617051 241.134888 
L 190.896389 241.134888 
L 194.175728 241.134888 
L 197.455067 241.134888 
L 200.734406 241.134888 
L 204.013745 241.134888 
L 207.293084 241.134888 
L 210.572423 241.134888 
L 213.851761 241.134888 
L 217.1311 241.134888 
L 220.410439 241.134888 
L 223.689778 241.134888 
L 226.969117 241.134888 
L 230.248456 241.134888 
L 233.527794 241.134888 
L 236.807133 241.134888 
L 240.086472 241.134888 
L 243.365811 241.134888 
L 246.64515 241.134888 
L 249.924489 241.134888 
L 253.203827 241.134888 
L 256.483166 241.134888 
L 259.762505 241.134888 
L 263.041844 241.134888 
L 266.321183 241.134888 
L 269.600522 241.134888 
L 272.879861 241.134888 
L 276.159199 241.134888 
L 279.438538 241.134888 
L 282.717877 241.134888 
L 285.997216 241.134888 
L 289.276555 241.134888 
L 292.555894 241.134888 
L 295.835232 241.134888 
L 299.114571 241.134888 
L 302.39391 241.134888 
L 305.673249 241.134888 
L 308.952588 241.134888 
L 312.231927 241.134888 
L 315.511265 241.134888 
L 318.790604 241.134888 
L 322.069943 241.134888 
L 325.349282 241.134888 
L 328.628621 241.134888 
L 331.90796 241.134888 
L 335.187299 241.134888 
L 338.466637 241.134888 
L 341.745976 241.134888 
L 345.025315 241.134888 
L 348.304654 241.134888 
L 351.583993 241.134888 
L 354.863332 241.134888 
L 358.14267 241.134888 
L 361.422009 241.134888 
L 364.701348 241.134888 
L 367.980687 241.134888 
L 371.260026 241.134888 
L 374.539365 241.134888 
L 377.818704 241.134888 
L 381.098042 241.134888 
L 384.377381 241.134888 
L 387.65672 241.134888 
L 390.936059 241.134888 
L 394.215398 241.134888 
" style="fill:none;stroke:#b22222;stroke-dasharray:1.5,2.475;stroke-dashoffset:0;stroke-width:1.5;"/>
   </g>
   <g id="line2d_16">
    <path clip-path="url(#pa9573d91b1)" d="M 69.560852 215.137954 
L 72.840191 235.731852 
L 76.11953 236.335057 
L 79.398869 237.709224 
L 82.678208 238.056742 
L 85.957546 234.842049 
L 89.236885 233.69566 
L 92.516224 208.454984 
L 95.795563 205.174869 
L 99.074902 227.479948 
L 102.354241 237.035495 
L 105.63358 231.013949 
L 108.912918 236.827224 
L 112.192257 232.860776 
L 115.471596 230.676334 
L 118.750935 231.351863 
L 122.030274 235.548189 
L 125.309613 234.63858 
L 128.588951 232.885685 
L 131.86829 213.217302 
L 135.147629 221.389078 
L 138.426968 226.410985 
L 141.706307 229.785331 
L 144.985646 225.330317 
L 148.264985 206.115088 
L 151.544323 222.77795 
L 154.823662 227.120726 
L 158.103001 228.579521 
L 161.38234 223.481389 
L 164.661679 227.248869 
L 167.941018 213.530908 
L 171.220356 196.05417 
L 174.499695 170.109454 
L 177.779034 178.923749 
L 181.058373 217.630901 
L 184.337712 236.103678 
L 187.617051 212.885389 
L 190.896389 220.790375 
L 194.175728 217.152239 
L 197.455067 229.401801 
L 200.734406 219.712108 
L 204.013745 229.991801 
L 207.293084 245.874398 
L 210.572423 242.334695 
L 213.851761 232.845471 
L 217.1311 239.513137 
L 220.410439 236.60935 
L 223.689778 236.888745 
L 226.969117 240.218676 
L 230.248456 239.831245 
L 233.527794 237.40462 
L 236.807133 240.261291 
L 240.086472 240.232181 
L 243.365811 235.769665 
L 246.64515 234.116403 
L 249.924489 232.278578 
L 253.203827 223.612534 
L 256.483166 229.842651 
L 259.762505 230.453658 
L 263.041844 226.565237 
L 266.321183 236.347661 
L 269.600522 237.284579 
L 272.879861 229.815942 
L 276.159199 235.423647 
L 279.438538 233.246707 
L 282.717877 231.747698 
L 285.997216 227.704424 
L 289.276555 225.815882 
L 292.555894 224.899071 
L 295.835232 223.185189 
L 299.114571 201.742903 
L 302.39391 181.650776 
L 305.673249 195.920925 
L 308.952588 145.649043 
L 312.231927 223.914136 
L 315.511265 238.225999 
L 318.790604 238.088853 
L 322.069943 245.622612 
L 325.349282 233.659948 
L 328.628621 198.728379 
L 331.90796 220.18687 
L 335.187299 220.979739 
L 338.466637 213.575323 
L 341.745976 208.847217 
L 345.025315 207.480252 
L 348.304654 198.476293 
L 351.583993 241.799613 
L 354.863332 248.257208 
L 358.14267 202.345208 
L 361.422009 177.857787 
L 364.701348 215.841693 
L 367.980687 224.962392 
L 371.260026 250.532881 
L 374.539365 250.276594 
L 377.818704 249.950383 
L 381.098042 250.605806 
L 384.377381 245.186564 
L 387.65672 236.779508 
L 390.936059 247.113519 
L 394.215398 244.024269 
" style="fill:none;stroke:#9acd32;stroke-dasharray:5.55,2.4;stroke-dashoffset:0;stroke-width:1.5;"/>
   </g>
   <g id="line2d_17">
    <path clip-path="url(#pa9573d91b1)" d="M 69.560852 214.875965 
L 72.840191 214.875965 
L 76.11953 214.875965 
L 79.398869 214.875965 
L 82.678208 214.875965 
L 85.957546 214.875965 
L 89.236885 214.875965 
L 92.516224 214.875965 
L 95.795563 214.875965 
L 99.074902 214.875965 
L 102.354241 214.875965 
L 105.63358 214.875965 
L 108.912918 214.875965 
L 112.192257 214.875965 
L 115.471596 214.875965 
L 118.750935 214.875965 
L 122.030274 214.875965 
L 125.309613 214.875965 
L 128.588951 214.875965 
L 131.86829 214.875965 
L 135.147629 214.875965 
L 138.426968 214.875965 
L 141.706307 214.875965 
L 144.985646 214.875965 
L 148.264985 214.875965 
L 151.544323 214.875965 
L 154.823662 214.875965 
L 158.103001 214.875965 
L 161.38234 214.875965 
L 164.661679 214.875965 
L 167.941018 214.875965 
L 171.220356 214.875965 
L 174.499695 214.875965 
L 177.779034 214.875965 
L 181.058373 214.875965 
L 184.337712 214.875965 
L 187.617051 214.875965 
L 190.896389 214.875965 
L 194.175728 214.875965 
L 197.455067 214.875965 
L 200.734406 214.875965 
L 204.013745 214.875965 
L 207.293084 214.875965 
L 210.572423 214.875965 
L 213.851761 214.875965 
L 217.1311 214.875965 
L 220.410439 214.875965 
L 223.689778 214.875965 
L 226.969117 214.875965 
L 230.248456 214.875965 
L 233.527794 214.875965 
L 236.807133 214.875965 
L 240.086472 214.875965 
L 243.365811 214.875965 
L 246.64515 214.875965 
L 249.924489 214.875965 
L 253.203827 214.875965 
L 256.483166 214.875965 
L 259.762505 214.875965 
L 263.041844 214.875965 
L 266.321183 214.875965 
L 269.600522 214.875965 
L 272.879861 214.875965 
L 276.159199 214.875965 
L 279.438538 214.875965 
L 282.717877 214.875965 
L 285.997216 214.875965 
L 289.276555 214.875965 
L 292.555894 214.875965 
L 295.835232 214.875965 
L 299.114571 214.875965 
L 302.39391 214.875965 
L 305.673249 214.875965 
L 308.952588 214.875965 
L 312.231927 214.875965 
L 315.511265 214.875965 
L 318.790604 214.875965 
L 322.069943 214.875965 
L 325.349282 214.875965 
L 328.628621 214.875965 
L 331.90796 214.875965 
L 335.187299 214.875965 
L 338.466637 214.875965 
L 341.745976 214.875965 
L 345.025315 214.875965 
L 348.304654 214.875965 
L 351.583993 214.875965 
L 354.863332 214.875965 
L 358.14267 214.875965 
L 361.422009 214.875965 
L 364.701348 214.875965 
L 367.980687 214.875965 
L 371.260026 214.875965 
L 374.539365 214.875965 
L 377.818704 214.875965 
L 381.098042 214.875965 
L 384.377381 214.875965 
L 387.65672 214.875965 
L 390.936059 214.875965 
L 394.215398 214.875965 
" style="fill:none;stroke:#9acd32;stroke-dasharray:5.55,2.4;stroke-dashoffset:0;stroke-width:1.5;"/>
   </g>
   <g id="line2d_18">
    <path clip-path="url(#pa9573d91b1)" d="M 69.560852 188.795304 
L 72.840191 215.380737 
L 76.11953 220.194072 
L 79.398869 219.886468 
L 82.678208 221.664272 
L 85.957546 217.457743 
L 89.236885 213.843014 
L 92.516224 178.506308 
L 95.795563 176.712898 
L 99.074902 205.394844 
L 102.354241 218.71637 
L 105.63358 210.8588 
L 108.912918 217.472748 
L 112.192257 212.011492 
L 115.471596 210.279604 
L 118.750935 211.225225 
L 122.030274 217.042701 
L 125.309613 216.717091 
L 128.588951 213.09366 
L 131.86829 183.855925 
L 135.147629 194.564164 
L 138.426968 204.689304 
L 141.706307 210.712951 
L 144.985646 198.813007 
L 148.264985 175.618726 
L 151.544323 200.698548 
L 154.823662 207.079916 
L 158.103001 206.772912 
L 161.38234 201.23543 
L 164.661679 205.017916 
L 167.941018 183.946856 
L 171.220356 163.253925 
L 174.499695 129.881386 
L 177.779034 142.676833 
L 181.058373 192.603598 
L 184.337712 217.136934 
L 187.617051 185.080941 
L 190.896389 194.753528 
L 194.175728 192.160047 
L 197.455067 204.792239 
L 200.734406 197.08562 
L 204.013745 211.831731 
L 207.293084 230.143053 
L 210.572423 223.914436 
L 213.851761 211.459905 
L 217.1311 221.314653 
L 220.410439 217.172646 
L 223.689778 216.975779 
L 226.969117 221.557436 
L 230.248456 220.65863 
L 233.527794 216.836231 
L 236.807133 221.755803 
L 240.086472 223.503297 
L 243.365811 218.636843 
L 246.64515 220.621417 
L 249.924489 214.85976 
L 253.203827 202.958616 
L 256.483166 207.373116 
L 259.762505 209.311475 
L 263.041844 204.592371 
L 266.321183 217.208958 
L 269.600522 213.346346 
L 272.879861 207.611397 
L 276.159199 214.983702 
L 279.438538 213.510501 
L 282.717877 211.224625 
L 285.997216 205.853099 
L 289.276555 202.70473 
L 292.555894 200.149962 
L 295.835232 198.734681 
L 299.114571 169.844464 
L 302.39391 146.725809 
L 305.673249 166.054777 
L 308.952588 97.832896 
L 312.231927 202.472751 
L 315.511265 216.369873 
L 318.790604 218.370653 
L 322.069943 228.441174 
L 325.349282 212.825369 
L 328.628621 165.160473 
L 331.90796 196.84794 
L 335.187299 193.800404 
L 338.466637 187.908202 
L 341.745976 181.687088 
L 345.025315 181.562546 
L 348.304654 167.410637 
L 351.583993 224.71901 
L 354.863332 233.939043 
L 358.14267 173.094269 
L 361.422009 140.277818 
L 364.701348 187.586193 
L 367.980687 202.189155 
L 371.260026 238.16898 
L 374.539365 235.959929 
L 377.818704 235.982437 
L 381.098042 238.253909 
L 384.377381 230.797575 
L 387.65672 219.111905 
L 390.936059 232.717928 
L 394.215398 227.247069 
" style="fill:none;stroke:#4682b4;stroke-dasharray:9.6,2.4,1.5,2.4;stroke-dashoffset:0;stroke-width:1.5;"/>
   </g>
   <g id="line2d_19">
    <path clip-path="url(#pa9573d91b1)" d="M 69.560852 188.617043 
L 72.840191 188.617043 
L 76.11953 188.617043 
L 79.398869 188.617043 
L 82.678208 188.617043 
L 85.957546 188.617043 
L 89.236885 188.617043 
L 92.516224 188.617043 
L 95.795563 188.617043 
L 99.074902 188.617043 
L 102.354241 188.617043 
L 105.63358 188.617043 
L 108.912918 188.617043 
L 112.192257 188.617043 
L 115.471596 188.617043 
L 118.750935 188.617043 
L 122.030274 188.617043 
L 125.309613 188.617043 
L 128.588951 188.617043 
L 131.86829 188.617043 
L 135.147629 188.617043 
L 138.426968 188.617043 
L 141.706307 188.617043 
L 144.985646 188.617043 
L 148.264985 188.617043 
L 151.544323 188.617043 
L 154.823662 188.617043 
L 158.103001 188.617043 
L 161.38234 188.617043 
L 164.661679 188.617043 
L 167.941018 188.617043 
L 171.220356 188.617043 
L 174.499695 188.617043 
L 177.779034 188.617043 
L 181.058373 188.617043 
L 184.337712 188.617043 
L 187.617051 188.617043 
L 190.896389 188.617043 
L 194.175728 188.617043 
L 197.455067 188.617043 
L 200.734406 188.617043 
L 204.013745 188.617043 
L 207.293084 188.617043 
L 210.572423 188.617043 
L 213.851761 188.617043 
L 217.1311 188.617043 
L 220.410439 188.617043 
L 223.689778 188.617043 
L 226.969117 188.617043 
L 230.248456 188.617043 
L 233.527794 188.617043 
L 236.807133 188.617043 
L 240.086472 188.617043 
L 243.365811 188.617043 
L 246.64515 188.617043 
L 249.924489 188.617043 
L 253.203827 188.617043 
L 256.483166 188.617043 
L 259.762505 188.617043 
L 263.041844 188.617043 
L 266.321183 188.617043 
L 269.600522 188.617043 
L 272.879861 188.617043 
L 276.159199 188.617043 
L 279.438538 188.617043 
L 282.717877 188.617043 
L 285.997216 188.617043 
L 289.276555 188.617043 
L 292.555894 188.617043 
L 295.835232 188.617043 
L 299.114571 188.617043 
L 302.39391 188.617043 
L 305.673249 188.617043 
L 308.952588 188.617043 
L 312.231927 188.617043 
L 315.511265 188.617043 
L 318.790604 188.617043 
L 322.069943 188.617043 
L 325.349282 188.617043 
L 328.628621 188.617043 
L 331.90796 188.617043 
L 335.187299 188.617043 
L 338.466637 188.617043 
L 341.745976 188.617043 
L 345.025315 188.617043 
L 348.304654 188.617043 
L 351.583993 188.617043 
L 354.863332 188.617043 
L 358.14267 188.617043 
L 361.422009 188.617043 
L 364.701348 188.617043 
L 367.980687 188.617043 
L 371.260026 188.617043 
L 374.539365 188.617043 
L 377.818704 188.617043 
L 381.098042 188.617043 
L 384.377381 188.617043 
L 387.65672 188.617043 
L 390.936059 188.617043 
L 394.215398 188.617043 
" style="fill:none;stroke:#4682b4;stroke-dasharray:9.6,2.4,1.5,2.4;stroke-dashoffset:0;stroke-width:1.5;"/>
   </g>
   <g id="line2d_20">
    <path clip-path="url(#pa9573d91b1)" d="M 69.560852 138.291443 
L 72.840191 169.522455 
L 76.11953 182.753651 
L 79.398869 187.440643 
L 82.678208 188.46189 
L 85.957546 174.906584 
L 89.236885 173.092168 
L 92.516224 120.904135 
L 95.795563 122.607214 
L 99.074902 157.280095 
L 102.354241 179.86787 
L 105.63358 166.217132 
L 108.912918 179.801848 
L 112.192257 170.779882 
L 115.471596 161.497428 
L 118.750935 171.62737 
L 122.030274 189.133819 
L 125.309613 179.764335 
L 128.588951 174.020083 
L 131.86829 131.833549 
L 135.147629 152.317309 
L 138.426968 162.478762 
L 141.706307 178.236816 
L 144.985646 156.46952 
L 148.264985 127.377035 
L 151.544323 158.250025 
L 154.823662 168.56603 
L 158.103001 162.563691 
L 161.38234 160.062941 
L 164.661679 166.898063 
L 167.941018 130.402063 
L 171.220356 107.660035 
L 174.499695 65.442891 
L 177.779034 76.116617 
L 181.058373 146.593464 
L 184.337712 182.922008 
L 187.617051 135.508298 
L 190.896389 143.089774 
L 194.175728 136.655287 
L 197.455067 162.464657 
L 200.734406 156.963488 
L 204.013745 174.029987 
L 207.293084 204.751725 
L 210.572423 187.916605 
L 213.851761 170.910727 
L 217.1311 185.911924 
L 220.410439 178.316643 
L 223.689778 176.020563 
L 226.969117 185.28291 
L 230.248456 182.215568 
L 233.527794 182.818773 
L 236.807133 187.48956 
L 240.086472 193.450185 
L 243.365811 199.781436 
L 246.64515 193.590033 
L 249.924489 184.834858 
L 253.203827 166.264548 
L 256.483166 169.792547 
L 259.762505 172.372223 
L 263.041844 162.391432 
L 266.321183 179.655698 
L 269.600522 182.838279 
L 272.879861 165.224395 
L 276.159199 175.023624 
L 279.438538 173.95166 
L 282.717877 168.900344 
L 285.997216 158.895844 
L 289.276555 154.579778 
L 292.555894 150.069845 
L 295.835232 153.120082 
L 299.114571 121.239349 
L 302.39391 92.875812 
L 305.673249 107.060432 
L 308.952588 22.796 
L 312.231927 161.272052 
L 315.511265 173.27403 
L 318.790604 180.558705 
L 322.069943 198.99637 
L 325.349282 173.624549 
L 328.628621 113.629063 
L 331.90796 149.898787 
L 335.187299 140.976756 
L 338.466637 137.253391 
L 341.745976 132.960432 
L 345.025315 132.311011 
L 348.304654 117.871605 
L 351.583993 205.17697 
L 354.863332 226.19071 
L 358.14267 119.444739 
L 361.422009 73.733808 
L 364.701348 144.603488 
L 367.980687 169.004779 
L 371.260026 224.768226 
L 374.539365 225.474967 
L 377.818704 216.50732 
L 381.098042 227.035497 
L 384.377381 216.604553 
L 387.65672 200.407449 
L 390.936059 214.434815 
L 394.215398 201.315858 
" style="fill:none;stroke:#bfbf00;stroke-linecap:square;stroke-width:1.5;"/>
   </g>
   <g id="line2d_21">
    <path clip-path="url(#pa9573d91b1)" d="M 69.560852 139.850473 
L 72.840191 139.850473 
L 76.11953 139.850473 
L 79.398869 139.850473 
L 82.678208 139.850473 
L 85.957546 139.850473 
L 89.236885 139.850473 
L 92.516224 139.850473 
L 95.795563 139.850473 
L 99.074902 139.850473 
L 102.354241 139.850473 
L 105.63358 139.850473 
L 108.912918 139.850473 
L 112.192257 139.850473 
L 115.471596 139.850473 
L 118.750935 139.850473 
L 122.030274 139.850473 
L 125.309613 139.850473 
L 128.588951 139.850473 
L 131.86829 139.850473 
L 135.147629 139.850473 
L 138.426968 139.850473 
L 141.706307 139.850473 
L 144.985646 139.850473 
L 148.264985 139.850473 
L 151.544323 139.850473 
L 154.823662 139.850473 
L 158.103001 139.850473 
L 161.38234 139.850473 
L 164.661679 139.850473 
L 167.941018 139.850473 
L 171.220356 139.850473 
L 174.499695 139.850473 
L 177.779034 139.850473 
L 181.058373 139.850473 
L 184.337712 139.850473 
L 187.617051 139.850473 
L 190.896389 139.850473 
L 194.175728 139.850473 
L 197.455067 139.850473 
L 200.734406 139.850473 
L 204.013745 139.850473 
L 207.293084 139.850473 
L 210.572423 139.850473 
L 213.851761 139.850473 
L 217.1311 139.850473 
L 220.410439 139.850473 
L 223.689778 139.850473 
L 226.969117 139.850473 
L 230.248456 139.850473 
L 233.527794 139.850473 
L 236.807133 139.850473 
L 240.086472 139.850473 
L 243.365811 139.850473 
L 246.64515 139.850473 
L 249.924489 139.850473 
L 253.203827 139.850473 
L 256.483166 139.850473 
L 259.762505 139.850473 
L 263.041844 139.850473 
L 266.321183 139.850473 
L 269.600522 139.850473 
L 272.879861 139.850473 
L 276.159199 139.850473 
L 279.438538 139.850473 
L 282.717877 139.850473 
L 285.997216 139.850473 
L 289.276555 139.850473 
L 292.555894 139.850473 
L 295.835232 139.850473 
L 299.114571 139.850473 
L 302.39391 139.850473 
L 305.673249 139.850473 
L 308.952588 139.850473 
L 312.231927 139.850473 
L 315.511265 139.850473 
L 318.790604 139.850473 
L 322.069943 139.850473 
L 325.349282 139.850473 
L 328.628621 139.850473 
L 331.90796 139.850473 
L 335.187299 139.850473 
L 338.466637 139.850473 
L 341.745976 139.850473 
L 345.025315 139.850473 
L 348.304654 139.850473 
L 351.583993 139.850473 
L 354.863332 139.850473 
L 358.14267 139.850473 
L 361.422009 139.850473 
L 364.701348 139.850473 
L 367.980687 139.850473 
L 371.260026 139.850473 
L 374.539365 139.850473 
L 377.818704 139.850473 
L 381.098042 139.850473 
L 384.377381 139.850473 
L 387.65672 139.850473 
L 390.936059 139.850473 
L 394.215398 139.850473 
" style="fill:none;stroke:#bfbf00;stroke-linecap:square;stroke-width:1.5;"/>
   </g>
   <g id="patch_3">
    <path d="M 53.328125 276.812 
L 53.328125 10.7 
" style="fill:none;stroke:#000000;stroke-linecap:square;stroke-linejoin:miter;stroke-width:0.8;"/>
   </g>
   <g id="patch_4">
    <path d="M 410.448125 276.812 
L 410.448125 10.7 
" style="fill:none;stroke:#000000;stroke-linecap:square;stroke-linejoin:miter;stroke-width:0.8;"/>
   </g>
   <g id="patch_5">
    <path d="M 53.328125 276.812 
L 410.448125 276.812 
" style="fill:none;stroke:#000000;stroke-linecap:square;stroke-linejoin:miter;stroke-width:0.8;"/>
   </g>
   <g id="patch_6">
    <path d="M 53.328125 10.7 
L 410.448125 10.7 
" style="fill:none;stroke:#000000;stroke-linecap:square;stroke-linejoin:miter;stroke-width:0.8;"/>
   </g>
   <g id="legend_1">
    <g id="patch_7">
     <path d="M 243.710625 77.4125 
L 403.448125 77.4125 
Q 405.448125 77.4125 405.448125 75.4125 
L 405.448125 17.7 
Q 405.448125 15.7 403.448125 15.7 
L 243.710625 15.7 
Q 241.710625 15.7 241.710625 17.7 
L 241.710625 75.4125 
Q 241.710625 77.4125 243.710625 77.4125 
z
" style="fill:#ffffff;opacity:0.8;stroke:#cccccc;stroke-linejoin:miter;"/>
    </g>
    <g id="line2d_22">
     <path d="M 245.710625 23.798438 
L 265.710625 23.798438 
" style="fill:none;stroke:#b22222;stroke-dasharray:1.5,2.475;stroke-dashoffset:0;stroke-width:1.5;"/>
    </g>
    <g id="line2d_23"/>
    <g id="text_16">
     <!-- video bitrate = 500kbps -->
     <defs>
      <path d="M 2.984375 54.6875 
L 12.5 54.6875 
L 29.59375 8.796875 
L 46.6875 54.6875 
L 56.203125 54.6875 
L 35.6875 0 
L 23.484375 0 
z
" id="DejaVuSans-76"/>
      <path d="M 30.609375 48.390625 
Q 23.390625 48.390625 19.1875 42.75 
Q 14.984375 37.109375 14.984375 27.296875 
Q 14.984375 17.484375 19.15625 11.84375 
Q 23.34375 6.203125 30.609375 6.203125 
Q 37.796875 6.203125 41.984375 11.859375 
Q 46.1875 17.53125 46.1875 27.296875 
Q 46.1875 37.015625 41.984375 42.703125 
Q 37.796875 48.390625 30.609375 48.390625 
z
M 30.609375 56 
Q 42.328125 56 49.015625 48.375 
Q 55.71875 40.765625 55.71875 27.296875 
Q 55.71875 13.875 49.015625 6.21875 
Q 42.328125 -1.421875 30.609375 -1.421875 
Q 18.84375 -1.421875 12.171875 6.21875 
Q 5.515625 13.875 5.515625 27.296875 
Q 5.515625 40.765625 12.171875 48.375 
Q 18.84375 56 30.609375 56 
z
" id="DejaVuSans-6f"/>
      <path d="M 48.6875 27.296875 
Q 48.6875 37.203125 44.609375 42.84375 
Q 40.53125 48.484375 33.40625 48.484375 
Q 26.265625 48.484375 22.1875 42.84375 
Q 18.109375 37.203125 18.109375 27.296875 
Q 18.109375 17.390625 22.1875 11.75 
Q 26.265625 6.109375 33.40625 6.109375 
Q 40.53125 6.109375 44.609375 11.75 
Q 48.6875 17.390625 48.6875 27.296875 
z
M 18.109375 46.390625 
Q 20.953125 51.265625 25.265625 53.625 
Q 29.59375 56 35.59375 56 
Q 45.5625 56 51.78125 48.09375 
Q 58.015625 40.1875 58.015625 27.296875 
Q 58.015625 14.40625 51.78125 6.484375 
Q 45.5625 -1.421875 35.59375 -1.421875 
Q 29.59375 -1.421875 25.265625 0.953125 
Q 20.953125 3.328125 18.109375 8.203125 
L 18.109375 0 
L 9.078125 0 
L 9.078125 75.984375 
L 18.109375 75.984375 
z
" id="DejaVuSans-62"/>
      <path d="M 10.59375 45.40625 
L 73.1875 45.40625 
L 73.1875 37.203125 
L 10.59375 37.203125 
z
M 10.59375 25.484375 
L 73.1875 25.484375 
L 73.1875 17.1875 
L 10.59375 17.1875 
z
" id="DejaVuSans-3d"/>
      <path d="M 9.078125 75.984375 
L 18.109375 75.984375 
L 18.109375 31.109375 
L 44.921875 54.6875 
L 56.390625 54.6875 
L 27.390625 29.109375 
L 57.625 0 
L 45.90625 0 
L 18.109375 26.703125 
L 18.109375 0 
L 9.078125 0 
z
" id="DejaVuSans-6b"/>
      <path d="M 18.109375 8.203125 
L 18.109375 -20.796875 
L 9.078125 -20.796875 
L 9.078125 54.6875 
L 18.109375 54.6875 
L 18.109375 46.390625 
Q 20.953125 51.265625 25.265625 53.625 
Q 29.59375 56 35.59375 56 
Q 45.5625 56 51.78125 48.09375 
Q 58.015625 40.1875 58.015625 27.296875 
Q 58.015625 14.40625 51.78125 6.484375 
Q 45.5625 -1.421875 35.59375 -1.421875 
Q 29.59375 -1.421875 25.265625 0.953125 
Q 20.953125 3.328125 18.109375 8.203125 
z
M 48.6875 27.296875 
Q 48.6875 37.203125 44.609375 42.84375 
Q 40.53125 48.484375 33.40625 48.484375 
Q 26.265625 48.484375 22.1875 42.84375 
Q 18.109375 37.203125 18.109375 27.296875 
Q 18.109375 17.390625 22.1875 11.75 
Q 26.265625 6.109375 33.40625 6.109375 
Q 40.53125 6.109375 44.609375 11.75 
Q 48.6875 17.390625 48.6875 27.296875 
z
" id="DejaVuSans-70"/>
      <path d="M 44.28125 53.078125 
L 44.28125 44.578125 
Q 40.484375 46.53125 36.375 47.5 
Q 32.28125 48.484375 27.875 48.484375 
Q 21.1875 48.484375 17.84375 46.4375 
Q 14.5 44.390625 14.5 40.28125 
Q 14.5 37.15625 16.890625 35.375 
Q 19.28125 33.59375 26.515625 31.984375 
L 29.59375 31.296875 
Q 39.15625 29.25 43.1875 25.515625 
Q 47.21875 21.78125 47.21875 15.09375 
Q 47.21875 7.46875 41.1875 3.015625 
Q 35.15625 -1.421875 24.609375 -1.421875 
Q 20.21875 -1.421875 15.453125 -0.5625 
Q 10.6875 0.296875 5.421875 2 
L 5.421875 11.28125 
Q 10.40625 8.6875 15.234375 7.390625 
Q 20.0625 6.109375 24.8125 6.109375 
Q 31.15625 6.109375 34.5625 8.28125 
Q 37.984375 10.453125 37.984375 14.40625 
Q 37.984375 18.0625 35.515625 20.015625 
Q 33.0625 21.96875 24.703125 23.78125 
L 21.578125 24.515625 
Q 13.234375 26.265625 9.515625 29.90625 
Q 5.8125 33.546875 5.8125 39.890625 
Q 5.8125 47.609375 11.28125 51.796875 
Q 16.75 56 26.8125 56 
Q 31.78125 56 36.171875 55.265625 
Q 40.578125 54.546875 44.28125 53.078125 
z
" id="DejaVuSans-73"/>
     </defs>
     <g transform="translate(273.710625 27.298438)scale(0.1 -0.1)">
      <use xlink:href="#DejaVuSans-76"/>
      <use x="59.179688" xlink:href="#DejaVuSans-69"/>
      <use x="86.962891" xlink:href="#DejaVuSans-64"/>
      <use x="150.439453" xlink:href="#DejaVuSans-65"/>
      <use x="211.962891" xlink:href="#DejaVuSans-6f"/>
      <use x="273.144531" xlink:href="#DejaVuSans-20"/>
      <use x="304.931641" xlink:href="#DejaVuSans-62"/>
      <use x="368.408203" xlink:href="#DejaVuSans-69"/>
      <use x="396.191406" xlink:href="#DejaVuSans-74"/>
      <use x="435.400391" xlink:href="#DejaVuSans-72"/>
      <use x="476.513672" xlink:href="#DejaVuSans-61"/>
      <use x="537.792969" xlink:href="#DejaVuSans-74"/>
      <use x="577.001953" xlink:href="#DejaVuSans-65"/>
      <use x="638.525391" xlink:href="#DejaVuSans-20"/>
      <use x="670.3125" xlink:href="#DejaVuSans-3d"/>
      <use x="754.101562" xlink:href="#DejaVuSans-20"/>
      <use x="785.888672" xlink:href="#DejaVuSans-35"/>
      <use x="849.511719" xlink:href="#DejaVuSans-30"/>
      <use x="913.134766" xlink:href="#DejaVuSans-30"/>
      <use x="976.757812" xlink:href="#DejaVuSans-6b"/>
      <use x="1034.667969" xlink:href="#DejaVuSans-62"/>
      <use x="1098.144531" xlink:href="#DejaVuSans-70"/>
      <use x="1161.621094" xlink:href="#DejaVuSans-73"/>
     </g>
    </g>
    <g id="line2d_24">
     <path d="M 245.710625 38.476563 
L 265.710625 38.476563 
" style="fill:none;stroke:#9acd32;stroke-dasharray:5.55,2.4;stroke-dashoffset:0;stroke-width:1.5;"/>
    </g>
    <g id="line2d_25"/>
    <g id="text_17">
     <!-- video bitrate = 850kbps -->
     <g transform="translate(273.710625 41.976563)scale(0.1 -0.1)">
      <use xlink:href="#DejaVuSans-76"/>
      <use x="59.179688" xlink:href="#DejaVuSans-69"/>
      <use x="86.962891" xlink:href="#DejaVuSans-64"/>
      <use x="150.439453" xlink:href="#DejaVuSans-65"/>
      <use x="211.962891" xlink:href="#DejaVuSans-6f"/>
      <use x="273.144531" xlink:href="#DejaVuSans-20"/>
      <use x="304.931641" xlink:href="#DejaVuSans-62"/>
      <use x="368.408203" xlink:href="#DejaVuSans-69"/>
      <use x="396.191406" xlink:href="#DejaVuSans-74"/>
      <use x="435.400391" xlink:href="#DejaVuSans-72"/>
      <use x="476.513672" xlink:href="#DejaVuSans-61"/>
      <use x="537.792969" xlink:href="#DejaVuSans-74"/>
      <use x="577.001953" xlink:href="#DejaVuSans-65"/>
      <use x="638.525391" xlink:href="#DejaVuSans-20"/>
      <use x="670.3125" xlink:href="#DejaVuSans-3d"/>
      <use x="754.101562" xlink:href="#DejaVuSans-20"/>
      <use x="785.888672" xlink:href="#DejaVuSans-38"/>
      <use x="849.511719" xlink:href="#DejaVuSans-35"/>
      <use x="913.134766" xlink:href="#DejaVuSans-30"/>
      <use x="976.757812" xlink:href="#DejaVuSans-6b"/>
      <use x="1034.667969" xlink:href="#DejaVuSans-62"/>
      <use x="1098.144531" xlink:href="#DejaVuSans-70"/>
      <use x="1161.621094" xlink:href="#DejaVuSans-73"/>
     </g>
    </g>
    <g id="line2d_26">
     <path d="M 245.710625 53.154688 
L 265.710625 53.154688 
" style="fill:none;stroke:#4682b4;stroke-dasharray:9.6,2.4,1.5,2.4;stroke-dashoffset:0;stroke-width:1.5;"/>
    </g>
    <g id="line2d_27"/>
    <g id="text_18">
     <!-- video bitrate = 1200kbps -->
     <g transform="translate(273.710625 56.654688)scale(0.1 -0.1)">
      <use xlink:href="#DejaVuSans-76"/>
      <use x="59.179688" xlink:href="#DejaVuSans-69"/>
      <use x="86.962891" xlink:href="#DejaVuSans-64"/>
      <use x="150.439453" xlink:href="#DejaVuSans-65"/>
      <use x="211.962891" xlink:href="#DejaVuSans-6f"/>
      <use x="273.144531" xlink:href="#DejaVuSans-20"/>
      <use x="304.931641" xlink:href="#DejaVuSans-62"/>
      <use x="368.408203" xlink:href="#DejaVuSans-69"/>
      <use x="396.191406" xlink:href="#DejaVuSans-74"/>
      <use x="435.400391" xlink:href="#DejaVuSans-72"/>
      <use x="476.513672" xlink:href="#DejaVuSans-61"/>
      <use x="537.792969" xlink:href="#DejaVuSans-74"/>
      <use x="577.001953" xlink:href="#DejaVuSans-65"/>
      <use x="638.525391" xlink:href="#DejaVuSans-20"/>
      <use x="670.3125" xlink:href="#DejaVuSans-3d"/>
      <use x="754.101562" xlink:href="#DejaVuSans-20"/>
      <use x="785.888672" xlink:href="#DejaVuSans-31"/>
      <use x="849.511719" xlink:href="#DejaVuSans-32"/>
      <use x="913.134766" xlink:href="#DejaVuSans-30"/>
      <use x="976.757812" xlink:href="#DejaVuSans-30"/>
      <use x="1040.380859" xlink:href="#DejaVuSans-6b"/>
      <use x="1098.291016" xlink:href="#DejaVuSans-62"/>
      <use x="1161.767578" xlink:href="#DejaVuSans-70"/>
      <use x="1225.244141" xlink:href="#DejaVuSans-73"/>
     </g>
    </g>
    <g id="line2d_28">
     <path d="M 245.710625 67.832813 
L 265.710625 67.832813 
" style="fill:none;stroke:#bfbf00;stroke-linecap:square;stroke-width:1.5;"/>
    </g>
    <g id="line2d_29"/>
    <g id="text_19">
     <!-- video bitrate = 1850kbps -->
     <g transform="translate(273.710625 71.332813)scale(0.1 -0.1)">
      <use xlink:href="#DejaVuSans-76"/>
      <use x="59.179688" xlink:href="#DejaVuSans-69"/>
      <use x="86.962891" xlink:href="#DejaVuSans-64"/>
      <use x="150.439453" xlink:href="#DejaVuSans-65"/>
      <use x="211.962891" xlink:href="#DejaVuSans-6f"/>
      <use x="273.144531" xlink:href="#DejaVuSans-20"/>
      <use x="304.931641" xlink:href="#DejaVuSans-62"/>
      <use x="368.408203" xlink:href="#DejaVuSans-69"/>
      <use x="396.191406" xlink:href="#DejaVuSans-74"/>
      <use x="435.400391" xlink:href="#DejaVuSans-72"/>
      <use x="476.513672" xlink:href="#DejaVuSans-61"/>
      <use x="537.792969" xlink:href="#DejaVuSans-74"/>
      <use x="577.001953" xlink:href="#DejaVuSans-65"/>
      <use x="638.525391" xlink:href="#DejaVuSans-20"/>
      <use x="670.3125" xlink:href="#DejaVuSans-3d"/>
      <use x="754.101562" xlink:href="#DejaVuSans-20"/>
      <use x="785.888672" xlink:href="#DejaVuSans-31"/>
      <use x="849.511719" xlink:href="#DejaVuSans-38"/>
      <use x="913.134766" xlink:href="#DejaVuSans-35"/>
      <use x="976.757812" xlink:href="#DejaVuSans-30"/>
      <use x="1040.380859" xlink:href="#DejaVuSans-6b"/>
      <use x="1098.291016" xlink:href="#DejaVuSans-62"/>
      <use x="1161.767578" xlink:href="#DejaVuSans-70"/>
      <use x="1225.244141" xlink:href="#DejaVuSans-73"/>
     </g>
    </g>
   </g>
  </g>
 </g>
 <defs>
  <clipPath id="pa9573d91b1">
   <rect height="266.112" width="357.12" x="53.328125" y="10.7"/>
  </clipPath>
 </defs>
</svg>
